# xmcd CD database file
#
# Track frame offsets:
#	150
#	22242
#	40232
#	53080
#	66735
#	86325
#	99177
#	116572
#	140500
#	152465
#
# Disc length: 2326 seconds
#
# Revision: 0
# Processed by: cddbd v1.5.2PL0 Copyright (c) Steve Scherf et al.
# Submitted via: CDex 1.70beta2
#
DISCID=8109140a
DTITLE=Bryn Haworth - The Gap
DYEAR=1980
DGENRE=Blues
TTITLE0=The Gap
TTITLE1=Egypt
TTITLE2=I Can Do All Things
TTITLE3=New World Coming
TTITLE4=It Could Have Been Me
TTITLE5=Power of the Holy Spirit
TTITLE6=More of You
TTITLE7=New Jerusalem
TTITLE8=No Time
TTITLE9=Send Down the Rain
EXTD=YEAR: 1980
EXTT0=
EXTT1=
EXTT2=
EXTT3=
EXTT4=
EXTT5=
EXTT6=
EXTT7=
EXTT8=
EXTT9=
PLAYORDER=
